<mxfile host="app.diagrams.net" modified="2023-09-08T13:38:27.068Z" agent="Mozilla/5.0 (X11; Linux x86_64; rv:109.0) Gecko/20100101 Firefox/116.0" etag="NxeQ0B4ni-pUAm8T6Iz1" version="21.7.2" type="device">
  <diagram name="Page-1" id="Vs-sZ3k6pBOKzFg-ea2b">
    <mxGraphModel dx="914" dy="1391" grid="1" gridSize="10" guides="1" tooltips="1" connect="1" arrows="1" fold="1" page="1" pageScale="1" pageWidth="850" pageHeight="1100" math="0" shadow="0">
      <root>
        <mxCell id="0" />
        <mxCell id="1" parent="0" />
        <mxCell id="lsYSEJzYXj3iPV_EKznm-2" value="" style="rounded=0;whiteSpace=wrap;html=1;fillColor=#A1AD00;strokeColor=none;strokeWidth=10;fontFamily=Noto Sans;fontStyle=1" parent="1" vertex="1">
          <mxGeometry x="1900" y="1530" width="800" height="290" as="geometry" />
        </mxCell>
        <mxCell id="lsYSEJzYXj3iPV_EKznm-4" value="" style="edgeStyle=orthogonalEdgeStyle;rounded=0;orthogonalLoop=1;jettySize=auto;html=1;fontFamily=Noto Sans;fontStyle=1" parent="1" source="lsYSEJzYXj3iPV_EKznm-5" target="lsYSEJzYXj3iPV_EKznm-7" edge="1">
          <mxGeometry relative="1" as="geometry" />
        </mxCell>
        <mxCell id="lsYSEJzYXj3iPV_EKznm-5" value="&lt;font style=&quot;font-size: 24px;&quot;&gt;Preprocess&lt;/font&gt;" style="rounded=1;whiteSpace=wrap;html=1;fontFamily=Noto Sans;fontStyle=1" parent="1" vertex="1">
          <mxGeometry x="1200" y="1585" width="130" height="70" as="geometry" />
        </mxCell>
        <mxCell id="lsYSEJzYXj3iPV_EKznm-1" value="" style="rounded=0;whiteSpace=wrap;html=1;fillColor=#E07222;strokeColor=none;strokeWidth=10;fontFamily=Noto Sans;fontStyle=1" parent="1" vertex="1">
          <mxGeometry x="1480" y="1550" width="355" height="210" as="geometry" />
        </mxCell>
        <mxCell id="lsYSEJzYXj3iPV_EKznm-6" value="" style="edgeStyle=orthogonalEdgeStyle;rounded=0;orthogonalLoop=1;jettySize=auto;html=1;fontFamily=Noto Sans;fontStyle=1" parent="1" source="lsYSEJzYXj3iPV_EKznm-7" target="lsYSEJzYXj3iPV_EKznm-9" edge="1">
          <mxGeometry relative="1" as="geometry" />
        </mxCell>
        <mxCell id="lsYSEJzYXj3iPV_EKznm-7" value="&lt;font style=&quot;font-size: 24px;&quot;&gt;Any&lt;/font&gt;" style="ellipse;whiteSpace=wrap;html=1;aspect=fixed;fontFamily=Noto Sans;fontStyle=1" parent="1" vertex="1">
          <mxGeometry x="1380" y="1585" width="70" height="70" as="geometry" />
        </mxCell>
        <mxCell id="lsYSEJzYXj3iPV_EKznm-8" value="" style="edgeStyle=orthogonalEdgeStyle;rounded=0;orthogonalLoop=1;jettySize=auto;html=1;fontFamily=Noto Sans;fontStyle=1;strokeColor=#ffffff;" parent="1" source="lsYSEJzYXj3iPV_EKznm-9" target="lsYSEJzYXj3iPV_EKznm-14" edge="1">
          <mxGeometry relative="1" as="geometry" />
        </mxCell>
        <mxCell id="lsYSEJzYXj3iPV_EKznm-9" value="&lt;font style=&quot;font-size: 24px;&quot;&gt;Any&lt;/font&gt;" style="ellipse;whiteSpace=wrap;html=1;aspect=fixed;fontFamily=Noto Sans;labelBackgroundColor=none;fontColor=#ffffff;fillColor=none;fontStyle=1;strokeColor=#ffffff;" parent="1" vertex="1">
          <mxGeometry x="1505" y="1585" width="70" height="70" as="geometry" />
        </mxCell>
        <mxCell id="lsYSEJzYXj3iPV_EKznm-3" value="" style="rounded=0;whiteSpace=wrap;html=1;fillColor=#005293;strokeColor=none;strokeWidth=10;perimeterSpacing=0;fontFamily=Noto Sans;fontStyle=1" parent="1" vertex="1">
          <mxGeometry x="2090" y="1555" width="365" height="205" as="geometry" />
        </mxCell>
        <mxCell id="lsYSEJzYXj3iPV_EKznm-10" style="edgeStyle=orthogonalEdgeStyle;rounded=0;orthogonalLoop=1;jettySize=auto;html=1;entryX=1;entryY=0.5;entryDx=0;entryDy=0;fontFamily=Noto Sans;fontStyle=1;strokeColor=#ffffff;" parent="1" source="lsYSEJzYXj3iPV_EKznm-14" target="lsYSEJzYXj3iPV_EKznm-16" edge="1">
          <mxGeometry relative="1" as="geometry" />
        </mxCell>
        <mxCell id="lsYSEJzYXj3iPV_EKznm-11" value="&lt;font style=&quot;font-size: 24px;&quot;&gt;No&lt;/font&gt;" style="edgeLabel;html=1;align=center;verticalAlign=middle;resizable=0;points=[];fontFamily=Noto Sans;labelBackgroundColor=none;fontColor=#ffffff;fontStyle=1" parent="lsYSEJzYXj3iPV_EKznm-10" vertex="1" connectable="0">
          <mxGeometry x="-0.0905" y="3" relative="1" as="geometry">
            <mxPoint x="12" y="-13" as="offset" />
          </mxGeometry>
        </mxCell>
        <mxCell id="lsYSEJzYXj3iPV_EKznm-12" value="" style="edgeStyle=orthogonalEdgeStyle;rounded=0;orthogonalLoop=1;jettySize=auto;html=1;fontFamily=Noto Sans;fontStyle=1" parent="1" source="lsYSEJzYXj3iPV_EKznm-14" target="lsYSEJzYXj3iPV_EKznm-26" edge="1">
          <mxGeometry relative="1" as="geometry" />
        </mxCell>
        <mxCell id="lsYSEJzYXj3iPV_EKznm-13" value="&lt;font style=&quot;font-size: 24px;&quot;&gt;Yes&lt;/font&gt;" style="edgeLabel;html=1;align=center;verticalAlign=middle;resizable=0;points=[];fontFamily=Noto Sans;fontStyle=1" parent="lsYSEJzYXj3iPV_EKznm-12" vertex="1" connectable="0">
          <mxGeometry x="-0.1091" y="-3" relative="1" as="geometry">
            <mxPoint x="-5" y="-23" as="offset" />
          </mxGeometry>
        </mxCell>
        <mxCell id="lsYSEJzYXj3iPV_EKznm-14" value="&lt;font style=&quot;font-size: 24px;&quot;&gt;Synchronize?&lt;/font&gt;" style="rhombus;whiteSpace=wrap;html=1;rounded=1;fontFamily=Noto Sans;fillColor=none;strokeColor=#ffffff;fontColor=#ffffff;fontStyle=1" parent="1" vertex="1">
          <mxGeometry x="1635" y="1580" width="200" height="80" as="geometry" />
        </mxCell>
        <mxCell id="lsYSEJzYXj3iPV_EKznm-15" style="edgeStyle=orthogonalEdgeStyle;rounded=0;orthogonalLoop=1;jettySize=auto;html=1;entryX=0.5;entryY=1;entryDx=0;entryDy=0;fontFamily=Noto Sans;fontStyle=1;strokeColor=#ffffff;" parent="1" source="lsYSEJzYXj3iPV_EKznm-16" target="lsYSEJzYXj3iPV_EKznm-9" edge="1">
          <mxGeometry relative="1" as="geometry">
            <Array as="points">
              <mxPoint x="1540" y="1725" />
            </Array>
          </mxGeometry>
        </mxCell>
        <mxCell id="lsYSEJzYXj3iPV_EKznm-16" value="&lt;font style=&quot;font-size: 24px;&quot;&gt;Solve&lt;br&gt;S&lt;br&gt;&lt;/font&gt;" style="rounded=1;whiteSpace=wrap;html=1;fontFamily=Noto Sans;labelBackgroundColor=none;fontColor=#ffffff;fillColor=none;fontStyle=1;strokeColor=#ffffff;" parent="1" vertex="1">
          <mxGeometry x="1575" y="1695" width="120" height="60" as="geometry" />
        </mxCell>
        <mxCell id="lsYSEJzYXj3iPV_EKznm-17" value="" style="edgeStyle=orthogonalEdgeStyle;rounded=0;orthogonalLoop=1;jettySize=auto;html=1;fontFamily=Noto Sans;fontStyle=1;strokeColor=#ffffff;" parent="1" source="lsYSEJzYXj3iPV_EKznm-18" target="lsYSEJzYXj3iPV_EKznm-22" edge="1">
          <mxGeometry relative="1" as="geometry" />
        </mxCell>
        <mxCell id="lsYSEJzYXj3iPV_EKznm-18" value="&lt;font style=&quot;font-size: 24px;&quot;&gt;Any&lt;/font&gt;" style="ellipse;whiteSpace=wrap;html=1;aspect=fixed;fontFamily=Noto Sans;fontStyle=1;labelBackgroundColor=none;fontColor=#ffffff;fillColor=none;strokeColor=#ffffff;" parent="1" vertex="1">
          <mxGeometry x="2110" y="1585" width="70" height="70" as="geometry" />
        </mxCell>
        <mxCell id="lsYSEJzYXj3iPV_EKznm-19" style="edgeStyle=orthogonalEdgeStyle;rounded=0;orthogonalLoop=1;jettySize=auto;html=1;entryX=1;entryY=0.5;entryDx=0;entryDy=0;fontFamily=Noto Sans;fontStyle=1;strokeColor=#ffffff;" parent="1" source="lsYSEJzYXj3iPV_EKznm-22" target="lsYSEJzYXj3iPV_EKznm-24" edge="1">
          <mxGeometry relative="1" as="geometry" />
        </mxCell>
        <mxCell id="lsYSEJzYXj3iPV_EKznm-20" value="&lt;font style=&quot;font-size: 24px;&quot;&gt;No&lt;/font&gt;" style="edgeLabel;html=1;align=center;verticalAlign=middle;resizable=0;points=[];fontFamily=Noto Sans;fontStyle=1;labelBackgroundColor=none;fontColor=#ffffff;" parent="lsYSEJzYXj3iPV_EKznm-19" vertex="1" connectable="0">
          <mxGeometry x="-0.0905" y="3" relative="1" as="geometry">
            <mxPoint x="17" y="-13" as="offset" />
          </mxGeometry>
        </mxCell>
        <mxCell id="lsYSEJzYXj3iPV_EKznm-21" value="&lt;font style=&quot;font-size: 24px;&quot;&gt;Yes&lt;/font&gt;" style="edgeStyle=orthogonalEdgeStyle;rounded=0;orthogonalLoop=1;jettySize=auto;html=1;fontFamily=Noto Sans;fontStyle=1;labelBackgroundColor=none;fontColor=#ffffff;strokeColor=#ffffff;" parent="1" source="lsYSEJzYXj3iPV_EKznm-22" target="lsYSEJzYXj3iPV_EKznm-28" edge="1">
          <mxGeometry y="20" relative="1" as="geometry">
            <mxPoint as="offset" />
          </mxGeometry>
        </mxCell>
        <mxCell id="lsYSEJzYXj3iPV_EKznm-22" value="&lt;font style=&quot;font-size: 24px;&quot;&gt;Synchronize?&lt;/font&gt;" style="rhombus;whiteSpace=wrap;html=1;rounded=1;fontFamily=Noto Sans;fontStyle=1;labelBackgroundColor=none;fontColor=#ffffff;fillColor=none;strokeColor=#ffffff;" parent="1" vertex="1">
          <mxGeometry x="2240" y="1580" width="200" height="80" as="geometry" />
        </mxCell>
        <mxCell id="lsYSEJzYXj3iPV_EKznm-23" style="edgeStyle=orthogonalEdgeStyle;rounded=0;orthogonalLoop=1;jettySize=auto;html=1;entryX=0.5;entryY=1;entryDx=0;entryDy=0;fontFamily=Noto Sans;fontStyle=1;strokeColor=#ffffff;" parent="1" source="lsYSEJzYXj3iPV_EKznm-24" target="lsYSEJzYXj3iPV_EKznm-18" edge="1">
          <mxGeometry relative="1" as="geometry">
            <Array as="points">
              <mxPoint x="2145" y="1725" />
            </Array>
          </mxGeometry>
        </mxCell>
        <mxCell id="lsYSEJzYXj3iPV_EKznm-24" value="&lt;font style=&quot;font-size: 24px;&quot;&gt;Solve&lt;br&gt;F&lt;br&gt;&lt;/font&gt;" style="rounded=1;whiteSpace=wrap;html=1;fontFamily=Noto Sans;fontStyle=1;labelBackgroundColor=none;fontColor=#ffffff;fillColor=none;strokeColor=#ffffff;" parent="1" vertex="1">
          <mxGeometry x="2180" y="1695" width="120" height="60" as="geometry" />
        </mxCell>
        <mxCell id="lsYSEJzYXj3iPV_EKznm-25" value="" style="edgeStyle=orthogonalEdgeStyle;rounded=0;orthogonalLoop=1;jettySize=auto;html=1;fontFamily=Noto Sans;fontStyle=1;strokeColor=#ffffff;" parent="1" source="lsYSEJzYXj3iPV_EKznm-26" target="lsYSEJzYXj3iPV_EKznm-18" edge="1">
          <mxGeometry relative="1" as="geometry" />
        </mxCell>
        <mxCell id="lsYSEJzYXj3iPV_EKznm-26" value="&lt;font style=&quot;font-size: 24px;&quot;&gt;Transfer&lt;br&gt;S =&amp;gt; F&lt;br&gt;&lt;/font&gt;" style="rounded=1;whiteSpace=wrap;html=1;fontFamily=Noto Sans;fontStyle=1;labelBackgroundColor=none;fontColor=#ffffff;fillColor=none;strokeColor=#ffffff;" parent="1" vertex="1">
          <mxGeometry x="1910" y="1590" width="160" height="60" as="geometry" />
        </mxCell>
        <mxCell id="lsYSEJzYXj3iPV_EKznm-27" value="" style="edgeStyle=orthogonalEdgeStyle;rounded=0;orthogonalLoop=1;jettySize=auto;html=1;fontFamily=Noto Sans;fontStyle=1" parent="1" source="lsYSEJzYXj3iPV_EKznm-28" target="lsYSEJzYXj3iPV_EKznm-33" edge="1">
          <mxGeometry relative="1" as="geometry" />
        </mxCell>
        <mxCell id="lsYSEJzYXj3iPV_EKznm-28" value="&lt;font style=&quot;font-size: 24px;&quot;&gt;Transfer&lt;br&gt;F =&amp;gt; S&lt;br&gt;&lt;/font&gt;" style="rounded=1;whiteSpace=wrap;html=1;fontFamily=Noto Sans;fontStyle=1;labelBackgroundColor=none;fontColor=#ffffff;fillColor=none;strokeColor=#ffffff;" parent="1" vertex="1">
          <mxGeometry x="2520" y="1590" width="160" height="60" as="geometry" />
        </mxCell>
        <mxCell id="lsYSEJzYXj3iPV_EKznm-29" style="edgeStyle=orthogonalEdgeStyle;rounded=0;orthogonalLoop=1;jettySize=auto;html=1;entryX=0.5;entryY=0;entryDx=0;entryDy=0;fontFamily=Noto Sans;fontStyle=1" parent="1" source="lsYSEJzYXj3iPV_EKznm-33" target="lsYSEJzYXj3iPV_EKznm-7" edge="1">
          <mxGeometry relative="1" as="geometry">
            <Array as="points">
              <mxPoint x="2815" y="1490" />
              <mxPoint x="1415" y="1490" />
            </Array>
          </mxGeometry>
        </mxCell>
        <mxCell id="lsYSEJzYXj3iPV_EKznm-30" value="&lt;font style=&quot;font-size: 24px;&quot;&gt;No&lt;/font&gt;" style="edgeLabel;html=1;align=center;verticalAlign=middle;resizable=0;points=[];fontFamily=Noto Sans;fontStyle=1;labelBackgroundColor=none;" parent="lsYSEJzYXj3iPV_EKznm-29" vertex="1" connectable="0">
          <mxGeometry x="-0.0672" y="4" relative="1" as="geometry">
            <mxPoint x="-56" y="6" as="offset" />
          </mxGeometry>
        </mxCell>
        <mxCell id="lsYSEJzYXj3iPV_EKznm-31" value="" style="edgeStyle=orthogonalEdgeStyle;rounded=0;orthogonalLoop=1;jettySize=auto;html=1;fontFamily=Noto Sans;fontStyle=1" parent="1" source="lsYSEJzYXj3iPV_EKznm-33" target="lsYSEJzYXj3iPV_EKznm-34" edge="1">
          <mxGeometry relative="1" as="geometry" />
        </mxCell>
        <mxCell id="lsYSEJzYXj3iPV_EKznm-32" value="&lt;font style=&quot;font-size: 24px;&quot;&gt;Yes&lt;/font&gt;" style="edgeLabel;html=1;align=center;verticalAlign=middle;resizable=0;points=[];fontFamily=Noto Sans;fontStyle=1" parent="lsYSEJzYXj3iPV_EKznm-31" vertex="1" connectable="0">
          <mxGeometry x="-0.225" y="5" relative="1" as="geometry">
            <mxPoint x="-1" y="-15" as="offset" />
          </mxGeometry>
        </mxCell>
        <mxCell id="lsYSEJzYXj3iPV_EKznm-33" value="&lt;font style=&quot;font-size: 24px;&quot;&gt;Terminate?&lt;/font&gt;" style="rhombus;whiteSpace=wrap;html=1;rounded=1;fontFamily=Noto Sans;fontStyle=1" parent="1" vertex="1">
          <mxGeometry x="2730" y="1580" width="170" height="80" as="geometry" />
        </mxCell>
        <mxCell id="lsYSEJzYXj3iPV_EKznm-34" value="&lt;font style=&quot;font-size: 24px;&quot;&gt;Postprocess&lt;/font&gt;" style="whiteSpace=wrap;html=1;rounded=1;fontFamily=Noto Sans;fontStyle=1" parent="1" vertex="1">
          <mxGeometry x="2960" y="1590" width="150" height="60" as="geometry" />
        </mxCell>
      </root>
    </mxGraphModel>
  </diagram>
</mxfile>
